<?xml version="1.0" encoding="UTF-8" standalone="no" ?>
<!DOCTYPE svg PUBLIC "-//W3C//DTD SVG 1.1//EN" "http://www.w3.org/Graphics/SVG/1.1/DTD/svg11.dtd">
<svg xmlns="http://www.w3.org/2000/svg" xmlns:xlink="http://www.w3.org/1999/xlink" version="1.1" width="1080" height="1080" viewBox="0 0 1080 1080" xml:space="preserve">
<desc>Created with Fabric.js 5.2.4</desc>
<defs>
</defs>
<g transform="matrix(1 0 0 1 540 540)" id="680d5ad4-97f7-4315-911c-3a0e1a2ac517"  >
</g>
<g transform="matrix(1 0 0 1 540 540)" id="54e076e9-6534-4dce-8a98-fedd111b729a"  >
<rect style="stroke: none; stroke-width: 1; stroke-dasharray: none; stroke-linecap: butt; stroke-dashoffset: 0; stroke-linejoin: miter; stroke-miterlimit: 4; fill: rgb(255,255,255); fill-rule: nonzero; opacity: 1; visibility: hidden;" vector-effect="non-scaling-stroke"  x="-540" y="-540" rx="0" ry="0" width="1080" height="1080" />
</g>
<g transform="matrix(1.78 0 0 1.78 894.74 508.72)"  >
<path style="stroke: none; stroke-width: 1; stroke-dasharray: none; stroke-linecap: butt; stroke-dashoffset: 0; stroke-linejoin: miter; stroke-miterlimit: 4; fill: rgb(193,130,189); fill-rule: nonzero; opacity: 1;" vector-effect="non-scaling-stroke"  transform=" translate(32.37, -74.39)" d="M 0 0 C 21.46208497 56.65733567 21.46208497 56.65733567 26 69.1875 C 26.37125 70.21230469 26.7425 71.23710938 27.125 72.29296875 C 30.82449267 83.7382742 29.95770014 95.82568476 24.74609375 106.58984375 C 19.89369263 115.38234169 13.42588881 121.09061388 4 124.5 C 3.18966309 124.8091333 2.37932617 125.1182666 1.54443359 125.43676758 C -0.41164249 126.17904244 -2.37114188 126.91232614 -4.33300781 127.63916016 C -7.93339028 128.97528079 -11.52659464 130.32914448 -15.11859131 131.68759155 C -25.31810509 135.54485829 -35.52406054 139.38452545 -45.75231934 143.16497803 C -47.91679515 143.96908908 -50.07627901 144.78551739 -52.23535156 145.60400391 C -53.50308663 146.0762991 -54.77097966 146.54817061 -56.0390625 147.01953125 C -57.12654785 147.42921143 -58.2140332 147.8388916 -59.33447266 148.26098633 C -62 149 -62 149 -65 148 C -66.10327148 145.75024414 -66.10327148 145.75024414 -67.12109375 142.78515625 C -67.49943359 141.70556641 -67.87777344 140.62597656 -68.26757812 139.51367188 C -68.65365234 138.37478516 -69.03972656 137.23589844 -69.4375 136.0625 C -70.20533182 133.84446305 -70.97484437 131.62700717 -71.74609375 129.41015625 C -72.08310303 128.42152588 -72.4201123 127.43289551 -72.76733398 126.41430664 C -74.08288846 122.77041095 -75.51455037 119.18604762 -76.9629364 115.59339905 C -78.57374181 111.56523605 -80.10707855 107.50876242 -81.63671875 103.44921875 C -81.96162796 102.5873848 -82.28653717 101.72555084 -82.62129211 100.83760071 C -83.29998533 99.03543975 -83.97805504 97.23304387 -84.65551758 95.43041992 C -85.69198123 92.67558927 -86.73368501 89.92277389 -87.77539062 87.16992188 C -88.43782468 85.40897627 -89.09994525 83.6479127 -89.76171875 81.88671875 C -90.07211594 81.06894455 -90.38251312 80.25117035 -90.70231628 79.40861511 C -95.31960089 67.06410918 -95.43569111 55.22262748 -90 43 C -82.702732 30.9611892 -71.81265354 25.42553231 -58.875 21 C -56.92968964 20.31522024 -54.98647659 19.62469972 -53.04333496 18.93379211 C -51.64947489 18.43838563 -50.25500971 17.94467882 -48.85998535 17.45256042 C -42.94887257 15.3608732 -37.07674706 13.17226954 -31.2109375 10.95703125 C -29.84586563 10.44171341 -29.84586563 10.44171341 -28.45321655 9.91598511 C -24.81298699 8.54039941 -21.17350065 7.16287425 -17.53509521 5.7824707 C -14.98801844 4.81693743 -12.43946165 3.85540715 -9.890625 2.89453125 C -9.12116547 2.60133499 -8.35170593 2.30813873 -7.55892944 2.00605774 C -2.22698802 0 -2.22698802 0 0 0 Z" stroke-linecap="round" />
</g>
<g transform="matrix(1.78 0 0 1.78 167.39 513.36)"  >
<path style="stroke: none; stroke-width: 1; stroke-dasharray: none; stroke-linecap: butt; stroke-dashoffset: 0; stroke-linejoin: miter; stroke-miterlimit: 4; fill: rgb(251,251,251); fill-rule: nonzero; opacity: 1;" vector-effect="non-scaling-stroke"  transform=" translate(-46, -54)" d="M 0 0 C 14 0 14 0 18.1875 3.625 C 19.48853777 5.39485522 20.75618303 7.18947352 22 9 C 23.30146266 10.67529251 24.62988869 12.32708825 25.95874023 13.98071289 C 30.52699806 19.68768833 34.9365836 25.521708 39.37939453 31.32641602 C 41.94411388 34.66459807 44.56881413 37.94237466 47.25 41.1875 C 53.68173156 48.98111066 59.81441177 57.01086896 66 65 C 68.31 67.97 70.62 70.94 73 74 C 73.33 49.58 73.66 25.16 74 0 C 79.94 0 85.88 0 92 0 C 92 35.64 92 71.28 92 108 C 77 108 77 108 72.1875 103.8125 C 70.7508866 101.90504125 69.35660086 99.96516947 68 98 C 66.42303316 95.95341191 64.83938661 93.91195788 63.25 91.875 C 62.41323363 90.77276417 61.57732173 89.66987922 60.7421875 88.56640625 C 57.70280636 84.58071816 54.54421508 80.6952558 51.375 76.8125 C 50.81820557 76.13026367 50.26141113 75.44802734 49.68774414 74.74511719 C 48.61146587 73.4268081 47.53505512 72.10860716 46.45849609 70.79052734 C 43.8895128 67.63670687 41.3516441 64.4582998 38.81640625 61.27734375 C 37.57808069 59.72477643 36.33571883 58.17542194 35.08984375 56.62890625 C 29.61673871 49.82832842 24.32700126 42.92510164 19 36 C 18.67 59.76 18.34 83.52 18 108 C 12.06 108 6.12 108 0 108 C 0 72.36 0 36.72 0 0 Z" stroke-linecap="round" />
</g>
<g transform="matrix(1.78 0 0 1.78 356.07 513.36)"  >
<path style="stroke: none; stroke-width: 1; stroke-dasharray: none; stroke-linecap: butt; stroke-dashoffset: 0; stroke-linejoin: miter; stroke-miterlimit: 4; fill: rgb(251,251,251); fill-rule: nonzero; opacity: 1;" vector-effect="non-scaling-stroke"  transform=" translate(-37, -54)" d="M 0 0 C 24.09 0 48.18 0 73 0 C 73 5.28 73 10.56 73 16 C 54.85 16 36.7 16 18 16 C 18 25.57 18 35.14 18 45 C 21.38121094 44.98839844 24.76242188 44.97679687 28.24609375 44.96484375 C 31.5059398 44.95705425 34.76578483 44.95097688 38.02563477 44.94506836 C 40.29842591 44.94002675 42.5712138 44.93319363 44.84399414 44.92456055 C 48.10303551 44.91248739 51.36203417 44.90677013 54.62109375 44.90234375 C 55.64400009 44.89718246 56.66690643 44.89202118 57.72080994 44.88670349 C 58.66170975 44.88662796 59.60260956 44.88655243 60.57202148 44.88647461 C 61.40475082 44.884254 62.23748016 44.88203339 63.09544373 44.87974548 C 65 45 65 45 66 46 C 66 50.95 66 55.9 66 61 C 50.16 61 34.32 61 18 61 C 18 71.23 18 81.46 18 92 C 36.48 92 54.96 92 74 92 C 74 97.28 74 102.56 74 108 C 49.58 108 25.16 108 0 108 C 0 72.36 0 36.72 0 0 Z" stroke-linecap="round" />
</g>
<g transform="matrix(1.78 0 0 1.78 671.69 513.68)"  >
<path style="stroke: none; stroke-width: 1; stroke-dasharray: none; stroke-linecap: butt; stroke-dashoffset: 0; stroke-linejoin: miter; stroke-miterlimit: 4; fill: rgb(251,251,251); fill-rule: nonzero; opacity: 1;" vector-effect="non-scaling-stroke"  transform=" translate(35.68, -44.17)" d="M 0 0 C 1.640625 1.80078125 1.640625 1.80078125 2 4 C 0.81301179 6.46941266 -0.35228523 8.50781483 -1.875 10.75 C -2.26558594 11.35199219 -2.65617187 11.95398438 -3.05859375 12.57421875 C -4.02479188 14.05886465 -5.01057788 15.53072939 -6 17 C -6.73863281 16.52949219 -7.47726562 16.05898438 -8.23828125 15.57421875 C -19.51120805 8.65576431 -31.12533048 4.49831546 -44.49609375 7.57421875 C -48.01277271 8.7937643 -50.59260724 10.18209807 -53 13 C -54.24324898 16.72974695 -54.50893094 20.1260481 -54 24 C -51.14534251 29.70931497 -45.68503325 31.00216873 -40 33 C -35.8987404 34.21828953 -31.76401017 35.29324897 -27.625 36.375 C -2.63403485 43.1948654 -2.63403485 43.1948654 4 54 C 7.16462724 61.60789174 7.47651349 71.55401984 4.9375 79.4375 C 1.01190669 87.79755982 -5.46324523 92.84005347 -14 96 C -32.70785337 101.775033 -53.33258478 98.36639888 -70.4140625 89.5625 C -73.14741638 87.91092666 -75.55389466 86.04872361 -78 84 C -76.45454854 78.52067211 -73.84456788 73.88570819 -71 69 C -68.02012792 69.59988672 -66.03776362 70.50794364 -63.5625 72.25 C -54.27487051 78.25553486 -44.09222014 81.16800209 -33.125 81.25 C -32.44308594 81.270625 -31.76117188 81.29125 -31.05859375 81.3125 C -24.91835438 81.35928278 -20.19139501 80.02282616 -15.5625 75.75 C -13.5421958 72.19426461 -13.49538883 70.03688938 -14 66 C -17.00814087 59.7163013 -21.7436097 58.32760306 -28 56 C -33.63705189 54.16620946 -39.34559832 52.60899812 -45.06054688 51.0390625 C -63.47524154 45.81651722 -63.47524154 45.81651722 -69 39.0625 C -69.53625 38.43472656 -70.0725 37.80695313 -70.625 37.16015625 C -74.77485684 30.64063684 -74.81112521 23.46911127 -74 16 C -71.60141166 7.04812568 -67.54376976 0.43842436 -59.64453125 -4.4609375 C -40.77480698 -14.58330122 -17.61963916 -11.28530607 0 0 Z" stroke-linecap="round" />
</g>
<g transform="matrix(1.78 0 0 1.78 508.1 513.6)"  >
<path style="stroke: none; stroke-width: 1; stroke-dasharray: none; stroke-linecap: butt; stroke-dashoffset: 0; stroke-linejoin: miter; stroke-miterlimit: 4; fill: rgb(251,251,251); fill-rule: nonzero; opacity: 1;" vector-effect="non-scaling-stroke"  transform=" translate(37.59, -43.13)" d="M 0 0 C -0.59834725 4.14298667 -2.00664285 7.18194377 -4.0625 10.8125 C -4.61035156 11.78832031 -5.15820312 12.76414062 -5.72265625 13.76953125 C -6.14417969 14.50558594 -6.56570313 15.24164063 -7 16 C -9.26003043 14.88074683 -11.50189838 13.73614485 -13.734375 12.5625 C -24.05949374 7.21269754 -33.61765253 3.91334155 -45.40625 6.53515625 C -49.43133033 7.90939077 -52.64880889 9.42618951 -55 13 C -56.12787708 17.17471169 -56.43799323 20.68602031 -55.0625 24.8125 C -48.30110715 31.98367424 -36.74635567 33.43885545 -27.6171875 35.82421875 C -14.79017564 39.316171 -3.53717831 43.43578292 3.375 55.375 C 5.52071154 64.38698849 5.61723677 73.24073523 1.375 81.6875 C -3.90246258 89.91413284 -11.9706488 94.40622077 -21.33984375 96.53051758 C -39.24727969 99.69094336 -59.63626542 96.99936784 -75 87 C -76.65 85.35 -78.3 83.7 -80 82 C -77.36 77.38 -74.72 72.76 -72 68 C -69.63269648 69.18365176 -67.27346267 70.38409298 -64.93359375 71.62109375 C -51.84796464 78.41977256 -39.19704421 82.28031696 -24.3046875 79.49609375 C -21.19651789 78.49253345 -19.20031109 77.21909025 -17 74.8125 C -15.66986873 71.07150581 -15.18011948 67.91632248 -16 64 C -22.46877162 54.8185177 -36.73834505 52.92489638 -46.875 50.17578125 C -56.72028794 47.3866534 -67.32133658 44.05036983 -73 35 C -76.98456445 26.41285702 -77.01684953 18.33330068 -74.03125 9.41796875 C -70.43150391 0.97765501 -64.04841036 -4.22510206 -55.8203125 -8 C -36.43937238 -15.6061048 -17.14152066 -9.98143872 0 0 Z" stroke-linecap="round" />
</g>
<g transform="matrix(1.78 0 0 1.78 437.06 674.47)"  >
<path style="stroke: none; stroke-width: 1; stroke-dasharray: none; stroke-linecap: butt; stroke-dashoffset: 0; stroke-linejoin: miter; stroke-miterlimit: 4; fill: rgb(251,251,251); fill-rule: nonzero; opacity: 1;" vector-effect="non-scaling-stroke"  transform=" translate(-13.5, -16.5)" d="M 0 0 C 4.49081478 1.1227037 4.95099452 1.72258851 7.625 5.25 C 8.30820313 6.13945312 8.99140625 7.02890625 9.6953125 7.9453125 C 10.45585937 8.95335937 11.21640625 9.96140625 12 11 C 13.33413881 12.73389531 14.67242791 14.4645288 16.01123047 16.19482422 C 18.01406915 18.79148585 20.00591441 21.39661047 22 24 C 22.33 16.08 22.66 8.16 23 0 C 24.32 0 25.64 0 27 0 C 27 10.89 27 21.78 27 33 C 21.24208967 31.84841793 20.62845061 30.93248064 17.125 26.5 C 16.69590332 25.96407227 16.26680664 25.42814453 15.82470703 24.87597656 C 14.53654218 23.26060534 13.26678539 21.63216564 12 20 C 11.27296875 19.07703125 10.5459375 18.1540625 9.796875 17.203125 C 8.18489264 15.14555401 6.59033409 13.07434881 5 11 C 4.67 18.26 4.34 25.52 4 33 C 2.68 33 1.36 33 0 33 C 0 22.11 0 11.22 0 0 Z" stroke-linecap="round" />
</g>
<g transform="matrix(1.78 0 0 1.78 525.99 675.05)"  >
<path style="stroke: none; stroke-width: 1; stroke-dasharray: none; stroke-linecap: butt; stroke-dashoffset: 0; stroke-linejoin: miter; stroke-miterlimit: 4; fill: rgb(251,251,251); fill-rule: nonzero; opacity: 1;" vector-effect="non-scaling-stroke"  transform=" translate(5.61, -15.98)" d="M 0 0 C 5.31157323 2.88651114 8.20352104 6.34657342 9.92578125 12.1484375 C 11.06006757 18.23341099 9.29498237 23.06646524 5.92578125 28.1484375 C 3.20923927 31.20454723 0.96031327 32.23495855 -3.07421875 33.1484375 C -8.70386073 33.2608056 -12.79310268 31.94306311 -17.07421875 28.1484375 C -20.15028008 23.84004104 -21.78365625 19.47980266 -21.44921875 14.16015625 C -20.38757806 8.46489631 -18.05469698 4.45233511 -13.26171875 1.1484375 C -8.67888569 -1.34204849 -4.98046203 -2.04470946 0 0 Z M -13.07421875 6.1484375 C -16.50126232 9.91818543 -16.58612759 13.81646796 -16.42578125 18.70703125 C -15.89922373 22.36368073 -14.56065614 24.46039708 -12.07421875 27.1484375 C -9.16067333 28.9118992 -7.47622641 29.15681266 -4.07421875 29.0859375 C -0.14316123 27.85748203 1.42260028 26.41647932 3.92578125 23.1484375 C 5.89793293 18.95313301 6.32534165 15.35807373 4.98828125 10.8984375 C 3.02664447 6.42977614 0.32963862 5.03580494 -4.07421875 3.1484375 C -7.88729228 3.1484375 -9.82250753 4.18386197 -13.07421875 6.1484375 Z" stroke-linecap="round" />
</g>
<g transform="matrix(1.78 0 0 1.78 686.14 675.2)"  >
<path style="stroke: none; stroke-width: 1; stroke-dasharray: none; stroke-linecap: butt; stroke-dashoffset: 0; stroke-linejoin: miter; stroke-miterlimit: 4; fill: rgb(251,251,251); fill-rule: nonzero; opacity: 1;" vector-effect="non-scaling-stroke"  transform=" translate(5.42, -16.22)" d="M 0 0 C 5.35997881 2.70279783 8.24374589 6.58670641 10.1484375 12.30078125 C 10.68348591 18.61435249 9.87632027 23.07942992 6.1484375 28.30078125 C 2.48760539 31.54560971 -0.93947534 33.08187211 -5.765625 33.4609375 C -9.67230571 33.16098636 -12.73738275 31.62087969 -15.8515625 29.30078125 C -19.6407723 24.53997919 -21.24515291 20.62357058 -21.12109375 14.48828125 C -20.53078322 9.69735519 -18.65297161 5.91462499 -15.05078125 2.6875 C -10.19496583 -0.65971257 -5.80360417 -2.19165643 0 0 Z M -13.8515625 7.30078125 C -16.68891764 11.64953798 -16.36390813 16.29117955 -15.8515625 21.30078125 C -14.4575479 24.94070827 -13.28065636 26.01471868 -10.0390625 28.17578125 C -6.29978749 29.49552537 -4.5967886 29.57575184 -0.8515625 28.30078125 C 3.56957323 25.08540981 5.15229174 21.82076765 6.05078125 16.578125 C 6.21544641 12.73813338 5.21548671 10.49531184 3.1484375 7.30078125 C -2.93827833 2.46005196 -7.72862751 2.52046574 -13.8515625 7.30078125 Z" stroke-linecap="round" />
</g>
<g transform="matrix(1.78 0 0 1.78 772.29 675.53)"  >
<path style="stroke: none; stroke-width: 1; stroke-dasharray: none; stroke-linecap: butt; stroke-dashoffset: 0; stroke-linejoin: miter; stroke-miterlimit: 4; fill: rgb(251,251,251); fill-rule: nonzero; opacity: 1;" vector-effect="non-scaling-stroke"  transform=" translate(10.1, -14.85)" d="M 0 0 C 2.41726058 2.05100898 3.16771704 3.74027551 4.0625 6.75 C 2.3125 7.5 2.3125 7.5 0.0625 7.75 C -0.8346875 6.821875 -0.8346875 6.821875 -1.75 5.875 C -4.74104548 2.96941296 -6.82191497 2.82220325 -10.9375 2.75 C -14.36082905 4.07264986 -15.68228011 5.39269215 -17.8125 8.375 C -19.2890182 12.80455459 -19.28007344 16.27750075 -17.9375 20.75 C -15.50572484 24.08500593 -13.89489521 25.42407823 -10 26.75 C -6.09744756 26.75 -4.12627975 25.99664028 -0.9375 23.75 C 0.50218727 20.68638223 0.50218727 20.68638223 1.0625 17.75 C -1.2475 17.75 -3.5575 17.75 -5.9375 17.75 C -5.9375 16.76 -5.9375 15.77 -5.9375 14.75 C -2.6375 14.75 0.6625 14.75 4.0625 14.75 C 4.0625 20.03 4.0625 25.31 4.0625 30.75 C 3.0725 30.75 2.0825 30.75 1.0625 30.75 C 0.7325 30.09 0.4025 29.43 0.0625 28.75 C -1.1440625 29.5234375 -1.1440625 29.5234375 -2.375 30.3125 C -6.94167011 32.15519145 -10.23238051 32.12443455 -14.9375 30.75 C -19.50334482 28.26942197 -22.2804887 24.62897772 -23.9375 19.75 C -24.6387336 13.77977502 -24.46903636 8.81186879 -20.9375 3.75 C -14.54974594 -2.67265982 -8.24330824 -3.50779074 0 0 Z" stroke-linecap="round" />
</g>
<g transform="matrix(1.78 0 0 1.78 980.01 675.43)"  >
<path style="stroke: none; stroke-width: 1; stroke-dasharray: none; stroke-linecap: butt; stroke-dashoffset: 0; stroke-linejoin: miter; stroke-miterlimit: 4; fill: rgb(251,251,251); fill-rule: nonzero; opacity: 1;" vector-effect="non-scaling-stroke"  transform=" translate(6.85, -15.73)" d="M 0 0 C 2.625 1.6875 2.625 1.6875 3.625 4.6875 C 3.295 5.3475 2.965 6.0075 2.625 6.6875 C 2.13 6.378125 1.635 6.06875 1.125 5.75 C -3.09966859 3.95451585 -7.50222097 2.98520786 -11.875 4.625 C -12.37 4.975625 -12.865 5.32625 -13.375 5.6875 C -13.375 7.6675 -13.375 9.6475 -13.375 11.6875 C -12.05435547 11.94273437 -12.05435547 11.94273437 -10.70703125 12.203125 C -9.54558594 12.44546875 -8.38414062 12.6878125 -7.1875 12.9375 C -6.03894531 13.16953125 -4.89039063 13.4015625 -3.70703125 13.640625 C -0.09735749 14.77473118 1.93411159 16.05052739 4.625 18.6875 C 5.75 22.0625 5.75 22.0625 5.625 25.6875 C 4.00956223 28.74115453 1.93779305 31.07486324 -1.25 32.5625 C -1.95125 32.60375 -2.6525 32.645 -3.375 32.6875 C -4.468125 32.77 -5.56125 32.8525 -6.6875 32.9375 C -11.62864976 32.6025068 -14.9647521 30.89262395 -19.375 28.6875 C -19.045 27.0375 -18.715 25.3875 -18.375 23.6875 C -17.818125 23.98785156 -17.26125 24.28820312 -16.6875 24.59765625 C -10.98978143 27.43689101 -7.6018713 28.0460901 -1.375 26.6875 C -0.69541397 24.29030568 -0.69541397 24.29030568 -0.375 21.6875 C -3.60839174 18.45410826 -7.97378508 17.98146658 -12.30859375 16.78515625 C -15.23623031 15.73717425 -16.64731358 15.22786121 -18.375 12.6875 C -19.05225502 9.62292104 -18.98123372 6.76316283 -18.375 3.6875 C -13.26231656 -1.83972534 -6.92869418 -2.69449218 0 0 Z" stroke-linecap="round" />
</g>
<g transform="matrix(1.78 0 0 1.78 905.2 674.47)"  >
<path style="stroke: none; stroke-width: 1; stroke-dasharray: none; stroke-linecap: butt; stroke-dashoffset: 0; stroke-linejoin: miter; stroke-miterlimit: 4; fill: rgb(251,251,251); fill-rule: nonzero; opacity: 1;" vector-effect="non-scaling-stroke"  transform=" translate(-11.5, -16.5)" d="M 0 0 C 7.26 0 14.52 0 22 0 C 22 1.32 22 2.64 22 4 C 16.06 4 10.12 4 4 4 C 4 7.63 4 11.26 4 15 C 9.28 15 14.56 15 20 15 C 20 16.32 20 17.64 20 19 C 14.72 19 9.44 19 4 19 C 4 22.3 4 25.6 4 29 C 10.27 29 16.54 29 23 29 C 23 30.32 23 31.64 23 33 C 15.41 33 7.82 33 0 33 C 0 22.11 0 11.22 0 0 Z" stroke-linecap="round" />
</g>
<g transform="matrix(1.78 0 0 1.78 348.95 674.47)"  >
<path style="stroke: none; stroke-width: 1; stroke-dasharray: none; stroke-linecap: butt; stroke-dashoffset: 0; stroke-linejoin: miter; stroke-miterlimit: 4; fill: rgb(251,251,251); fill-rule: nonzero; opacity: 1;" vector-effect="non-scaling-stroke"  transform=" translate(-13, -16.5)" d="M 0 0 C 1.32 0 2.64 0 4 0 C 4 4.95 4 9.9 4 15 C 9.94 15 15.88 15 22 15 C 22 10.05 22 5.1 22 0 C 23.32 0 24.64 0 26 0 C 26 10.89 26 21.78 26 33 C 24.68 33 23.36 33 22 33 C 22 28.38 22 23.76 22 19 C 16.06 19 10.12 19 4 19 C 4 23.62 4 28.24 4 33 C 2.68 33 1.36 33 0 33 C 0 22.11 0 11.22 0 0 Z" stroke-linecap="round" />
</g>
<g transform="matrix(1.78 0 0 1.78 185.19 674.47)"  >
<path style="stroke: none; stroke-width: 1; stroke-dasharray: none; stroke-linecap: butt; stroke-dashoffset: 0; stroke-linejoin: miter; stroke-miterlimit: 4; fill: rgb(251,251,251); fill-rule: nonzero; opacity: 1;" vector-effect="non-scaling-stroke"  transform=" translate(-11, -16.5)" d="M 0 0 C 6.93 0 13.86 0 21 0 C 21.33 1.32 21.66 2.64 22 4 C 16.06 4 10.12 4 4 4 C 4 7.63 4 11.26 4 15 C 8.95 15 13.9 15 19 15 C 19 16.32 19 17.64 19 19 C 14.05 19 9.1 19 4 19 C 4 22.3 4 25.6 4 29 C 9.94 29 15.88 29 22 29 C 22 30.32 22 31.64 22 33 C 14.74 33 7.48 33 0 33 C 0 22.11 0 11.22 0 0 Z" stroke-linecap="round" />
</g>
<g transform="matrix(1.78 0 0 1.78 263.24 675.09)"  >
<path style="stroke: none; stroke-width: 1; stroke-dasharray: none; stroke-linecap: butt; stroke-dashoffset: 0; stroke-linejoin: miter; stroke-miterlimit: 4; fill: rgb(251,251,251); fill-rule: nonzero; opacity: 1;" vector-effect="non-scaling-stroke"  transform=" translate(7.35, -15.88)" d="M 0 0 C 5.53939425 3.24208712 5.53939425 3.24208712 6.52734375 6.1953125 C 6.61757812 6.79859375 6.7078125 7.401875 6.80078125 8.0234375 C 5.48078125 8.3534375 4.16078125 8.6834375 2.80078125 9.0234375 C 2.47078125 8.0334375 2.14078125 7.0434375 1.80078125 6.0234375 C -2.08076458 4.37939433 -5.96207119 3.75449238 -10.07421875 4.6484375 C -13.26352026 6.71210318 -14.77642385 8.31599656 -15.70703125 12.07421875 C -16.32316579 15.97421932 -16.33516518 18.59160766 -15.13671875 22.3984375 C -12.75465046 25.62575583 -10.99850228 26.75700966 -7.19921875 28.0234375 C -3.35845194 27.94662216 -1.8101567 27.63437545 0.92578125 24.8984375 C 1.54453125 24.2796875 2.16328125 23.6609375 2.80078125 23.0234375 C 5.05078125 23.2734375 5.05078125 23.2734375 6.80078125 24.0234375 C 6.49173718 26.90784885 5.7846026 28.0411329 3.80078125 30.2109375 C -0.19335991 32.62406445 -3.55806877 33.21482513 -8.19921875 33.0234375 C -14.0870224 31.35522647 -16.77161741 28.8624041 -20.19921875 24.0234375 C -21.99895161 18.62423893 -21.90034502 13.08786485 -20.07421875 7.7109375 C -15.37717153 0.97850314 -8.3060532 -3.68830071 0 0 Z" stroke-linecap="round" />
</g>
<g transform="matrix(1.78 0 0 1.78 105.98 674.47)"  >
<path style="stroke: none; stroke-width: 1; stroke-dasharray: none; stroke-linecap: butt; stroke-dashoffset: 0; stroke-linejoin: miter; stroke-miterlimit: 4; fill: rgb(251,251,251); fill-rule: nonzero; opacity: 1;" vector-effect="non-scaling-stroke"  transform=" translate(-13.5, -16.5)" d="M 0 0 C 8.91 0 17.82 0 27 0 C 27 1.32 27 2.64 27 4 C 23.37 4 19.74 4 16 4 C 16 13.57 16 23.14 16 33 C 14.35 33 12.7 33 11 33 C 11 23.43 11 13.86 11 4 C 7.37 4 3.74 4 0 4 C 0 2.68 0 1.36 0 0 Z" stroke-linecap="round" />
</g>
<g transform="matrix(1.78 0 0 1.78 610.61 674.47)"  >
<path style="stroke: none; stroke-width: 1; stroke-dasharray: none; stroke-linecap: butt; stroke-dashoffset: 0; stroke-linejoin: miter; stroke-miterlimit: 4; fill: rgb(251,251,251); fill-rule: nonzero; opacity: 1;" vector-effect="non-scaling-stroke"  transform=" translate(-11, -16.5)" d="M 0 0 C 1.32 0 2.64 0 4 0 C 4 9.57 4 19.14 4 29 C 9.94 29 15.88 29 22 29 C 22 30.32 22 31.64 22 33 C 14.74 33 7.48 33 0 33 C 0 22.11 0 11.22 0 0 Z" stroke-linecap="round" />
</g>
<g transform="matrix(1.78 0 0 1.78 840.23 680.7)"  >
<path style="stroke: none; stroke-width: 1; stroke-dasharray: none; stroke-linecap: butt; stroke-dashoffset: 0; stroke-linejoin: miter; stroke-miterlimit: 4; fill: rgb(251,251,251); fill-rule: nonzero; opacity: 1;" vector-effect="non-scaling-stroke"  transform=" translate(-2, -13)" d="M 0 0 C 1.32 0 2.64 0 4 0 C 4 8.58 4 17.16 4 26 C 2.68 26 1.36 26 0 26 C 0 17.42 0 8.84 0 0 Z" stroke-linecap="round" />
</g>
</svg>